<?xml version="1.0" encoding="UTF-8" standalone="no"?>
<!-- Generator: Adobe Illustrator 24.1.2, SVG Export Plug-In . SVG Version: 6.00 Build 0)  -->

<svg
   version="1.1"
   x="0px"
   y="0px"
   viewBox="0 0 867.85999 691.22998"
   xml:space="preserve"
   id="svg416"
   sodipodi:docname="Mnt.svg"
   width="867.85999"
   height="691.22998"
   inkscape:version="1.2.1 (9c6d41e410, 2022-07-14)"
   xmlns:inkscape="http://www.inkscape.org/namespaces/inkscape"
   xmlns:sodipodi="http://sodipodi.sourceforge.net/DTD/sodipodi-0.dtd"
   xmlns="http://www.w3.org/2000/svg"
   xmlns:svg="http://www.w3.org/2000/svg"><defs
   id="defs420" /><sodipodi:namedview
   id="namedview418"
   pagecolor="#ffffff"
   bordercolor="#000000"
   borderopacity="0.25"
   inkscape:showpageshadow="2"
   inkscape:pageopacity="0.0"
   inkscape:pagecheckerboard="0"
   inkscape:deskcolor="#d1d1d1"
   showgrid="false"
   inkscape:zoom="0.63020833"
   inkscape:cx="518.08264"
   inkscape:cy="347.50413"
   inkscape:window-width="1920"
   inkscape:window-height="1009"
   inkscape:window-x="-8"
   inkscape:window-y="-8"
   inkscape:window-maximized="1"
   inkscape:current-layer="svg416" />
<style
   type="text/css"
   id="style2">
	.st0{display:none;}
	.st1{display:inline;}
	.st2{fill:#6FA39B;}
	.st3{fill:#FFF0F0;}
	.st4{opacity:0.5;}
	.st5{opacity:0.7;}
	.st6{opacity:0.13;}
	.st7{opacity:0.1;}
</style>
<g
   id="Слой_1"
   transform="translate(-442.92,-192.35)">
	<g
   class="st0"
   id="g340">
		<g
   class="st1"
   id="g8">
			<g
   id="g6">
				<path
   d="m 444.85,862.77 c 11.68,-27.87 18.81,-57.59 21.13,-87.73 0.66,-8.49 0.92,-17 0.8,-25.52 -0.04,-2.57 -4.04,-2.58 -4,0 0.41,29.87 -3.99,59.73 -12.99,88.21 -2.57,8.12 -5.51,16.11 -8.8,23.97 -0.42,1 0.45,2.2 1.4,2.46 1.16,0.33 2.04,-0.39 2.46,-1.39 z"
   id="path4" />
			</g>
		</g>
		<g
   class="st1"
   id="g14">
			<g
   id="g12">
				<path
   d="m 473.09,741.99 c 7.35,-12.16 16.3,-23.22 25.53,-33.98 9.29,-10.83 18.86,-21.44 27.56,-32.77 4.87,-6.35 9.44,-12.94 13.48,-19.86 1.3,-2.23 -2.16,-4.24 -3.45,-2.02 -7.15,12.26 -15.99,23.4 -25.18,34.19 -9.24,10.84 -18.84,21.39 -27.6,32.64 -4.94,6.35 -9.62,12.89 -13.79,19.78 -1.34,2.21 2.12,4.22 3.45,2.02 z"
   id="path10" />
			</g>
		</g>
		<g
   class="st1"
   id="g20">
			<g
   id="g18">
				<path
   d="m 469.73,754.25 c 8.86,-19.85 17.84,-40.06 31.37,-57.27 13.68,-17.4 30.97,-31.62 47.52,-46.16 10.14,-8.91 20.27,-17.82 30.41,-26.73 1.94,-1.7 -0.9,-4.52 -2.83,-2.83 -9.08,7.98 -18.16,15.96 -27.23,23.94 -8.63,7.59 -17.34,15.09 -25.81,22.86 -7.98,7.31 -15.72,14.93 -22.62,23.29 -7.01,8.5 -13,17.74 -18.26,27.41 -5.91,10.87 -10.96,22.18 -16,33.47 -0.44,0.99 -0.29,2.15 0.72,2.74 0.85,0.49 2.29,0.27 2.73,-0.72 z"
   id="path16" />
			</g>
		</g>
		<g
   class="st1"
   id="g26">
			<g
   id="g24">
				<path
   d="m 576.53,629.41 c 10.52,-13.75 20.53,-27.92 29.33,-42.85 8.74,-14.82 16.3,-30.41 21.74,-46.75 3.07,-9.21 5.43,-18.65 6.97,-28.24 0.17,-1.07 -0.27,-2.15 -1.4,-2.46 -0.95,-0.26 -2.29,0.32 -2.46,1.4 -2.69,16.83 -7.97,33.16 -15.02,48.66 -7.1,15.6 -15.87,30.4 -25.49,44.57 -5.47,8.06 -11.22,15.92 -17.14,23.65 -0.66,0.86 -0.13,2.24 0.72,2.74 1.04,0.6 2.09,0.14 2.75,-0.72 z"
   id="path22" />
			</g>
		</g>
		<g
   class="st1"
   id="g32">
			<g
   id="g30">
				<path
   d="m 631.88,545.93 c 5.21,-16.08 10.28,-32.21 15.19,-48.39 4.91,-16.18 9.66,-32.4 14.26,-48.67 2.59,-9.16 5.13,-18.34 7.62,-27.53 0.67,-2.49 -3.18,-3.55 -3.86,-1.06 -4.43,16.32 -9,32.59 -13.74,48.82 -4.73,16.23 -9.62,32.42 -14.67,48.55 -2.84,9.09 -5.73,18.16 -8.66,27.22 -0.79,2.45 3.07,3.51 3.86,1.06 z"
   id="path28" />
			</g>
		</g>
		<g
   class="st1"
   id="g38">
			<g
   id="g36">
				<path
   d="m 618.14,566.28 c 9.52,-23.37 18.29,-47.05 26.27,-70.99 7.98,-23.94 15.19,-48.14 21.6,-72.55 3.6,-13.71 6.94,-27.48 10.04,-41.31 0.56,-2.51 -3.29,-3.58 -3.86,-1.06 -5.52,24.63 -11.82,49.07 -18.93,73.29 -7.1,24.22 -14.99,48.2 -23.66,71.9 -4.87,13.31 -9.98,26.53 -15.32,39.65 -0.41,1 0.44,2.2 1.4,2.46 1.15,0.33 2.05,-0.38 2.46,-1.39 z"
   id="path34" />
			</g>
		</g>
		<g
   class="st1"
   id="g44">
			<g
   id="g42">
				<path
   d="m 669.83,417.96 c 4.22,-27.92 9.85,-55.62 16.9,-82.96 1.98,-7.7 4.08,-15.37 6.29,-23.01 0.71,-2.48 -3.14,-3.54 -3.86,-1.06 -7.83,27.13 -14.27,54.65 -19.29,82.43 -1.41,7.82 -2.71,15.67 -3.9,23.53 -0.16,1.07 0.27,2.15 1.4,2.46 0.95,0.27 2.3,-0.32 2.46,-1.39 z"
   id="path40" />
			</g>
		</g>
		<g
   class="st1"
   id="g50">
			<g
   id="g48">
				<path
   d="m 691.69,329.23 c 10.62,-11.21 20.33,-23.27 29.01,-36.04 8.67,-12.74 16.31,-26.18 22.81,-40.15 3.68,-7.92 7.01,-16 9.97,-24.22 0.87,-2.43 -2.99,-3.47 -3.86,-1.06 -5.13,14.28 -11.43,28.12 -18.79,41.38 -7.36,13.26 -15.77,25.95 -25.16,37.86 -5.3,6.72 -10.91,13.2 -16.8,19.41 -1.78,1.86 1.05,4.69 2.82,2.82 z"
   id="path46" />
			</g>
		</g>
		<g
   class="st1"
   id="g56">
			<g
   id="g54">
				<path
   d="m 693.67,334.13 c 15.12,-9.86 26.77,-23.95 35.86,-39.39 4.61,-7.83 8.61,-16.01 12.24,-24.33 3.61,-8.27 6.64,-16.77 10.24,-25.04 3.89,-8.95 8.79,-17.98 16.76,-23.94 0.86,-0.65 1.31,-1.73 0.72,-2.74 -0.5,-0.85 -1.87,-1.37 -2.74,-0.72 -14.74,11.01 -19.76,29.74 -26.53,45.95 -6.9,16.52 -15.12,32.88 -26.57,46.76 -6.33,7.68 -13.65,14.54 -22,19.99 -2.14,1.4 -0.14,4.87 2.02,3.46 z"
   id="path52" />
			</g>
		</g>
		<g
   class="st1"
   id="g62">
			<g
   id="g60">
				<path
   d="m 738.54,254.73 c 11.01,-18.89 26.09,-35.4 43.95,-48.03 5.06,-3.57 10.33,-6.84 15.78,-9.78 2.27,-1.22 0.25,-4.68 -2.02,-3.45 -19.75,10.67 -37.05,25.61 -50.63,43.47 -3.83,5.04 -7.34,10.31 -10.53,15.77 -1.3,2.23 2.16,4.25 3.45,2.02 z"
   id="path58" />
			</g>
		</g>
		<g
   class="st1"
   id="g68">
			<g
   id="g66">
				<path
   d="m 793.42,205.96 c 5.08,-2.93 10.15,-5.87 15.23,-8.8 3.71,-2.14 9.07,-5.59 12.58,-1.32 1.32,1.61 2.14,3.6 3.14,5.41 1.13,2.02 2.45,3.93 3.88,5.75 2.8,3.56 6.17,6.64 9.9,9.21 4.25,2.92 9.03,5.08 14.02,6.36 2.49,0.64 3.56,-3.22 1.06,-3.86 -8.91,-2.28 -17.03,-7.64 -22.53,-15.03 -1.35,-1.82 -2.53,-3.75 -3.58,-5.75 -1.06,-2.01 -2.12,-4.1 -3.79,-5.68 -4.21,-3.97 -9.78,-2.37 -14.31,0.1 -5.95,3.24 -11.75,6.78 -17.62,10.17 -2.23,1.27 -0.21,4.73 2.02,3.44 z"
   id="path64" />
			</g>
		</g>
		<g
   class="st1"
   id="g74">
			<g
   id="g72">
				<path
   d="m 865.48,220 c 15.3,14.67 24.11,34.38 31.01,54.08 1.98,5.66 3.83,11.36 5.67,17.06 0.78,2.44 4.65,1.4 3.86,-1.06 -6.57,-20.43 -13.39,-41.4 -25.9,-59.09 -3.5,-4.96 -7.43,-9.61 -11.81,-13.81 -1.87,-1.79 -4.7,1.04 -2.83,2.82 z"
   id="path70" />
			</g>
		</g>
		<g
   class="st1"
   id="g80">
			<g
   id="g78">
				<path
   d="m 864.96,243.16 c 11.71,4.89 19.72,15.57 26.8,25.63 8.58,12.17 17.36,24.15 26.88,35.61 5.48,6.59 11.14,13.03 16.96,19.31 1.75,1.89 4.58,-0.94 2.83,-2.83 -10.59,-11.41 -20.62,-23.34 -30,-35.76 -4.39,-5.81 -8.58,-11.75 -12.76,-17.71 -3.78,-5.38 -7.66,-10.73 -12.16,-15.53 -4.98,-5.31 -10.74,-9.76 -17.49,-12.57 -1,-0.42 -2.2,0.45 -2.46,1.4 -0.32,1.14 0.4,2.03 1.4,2.45 z"
   id="path76" />
			</g>
		</g>
		<g
   class="st1"
   id="g86">
			<g
   id="g84">
				<path
   d="m 896.26,286.54 c 18.13,16.29 33.47,35.38 46.68,55.81 13.37,20.68 24.65,42.63 35.11,64.9 5.92,12.61 11.57,25.33 17.2,38.07 0.44,0.99 1.88,1.22 2.74,0.72 1.02,-0.6 1.16,-1.74 0.72,-2.74 -10.03,-22.69 -20.14,-45.37 -31.67,-67.34 -11.44,-21.81 -24.31,-42.93 -39.71,-62.18 -8.6,-10.75 -18,-20.86 -28.24,-30.06 -1.91,-1.72 -4.75,1.1 -2.83,2.82 z"
   id="path82" />
			</g>
		</g>
		<g
   class="st1"
   id="g92">
			<g
   id="g90">
				<path
   d="m 970.68,389.6 c 11.57,10.8 22.41,22.36 32.45,34.6 10.02,12.22 19.2,25.11 27.5,38.56 4.71,7.62 9.12,15.43 13.24,23.38 1.18,2.29 4.64,0.27 3.45,-2.02 -7.34,-14.18 -15.63,-27.87 -24.8,-40.94 -9.14,-13.03 -19.14,-25.47 -29.92,-37.19 -6.12,-6.65 -12.49,-13.06 -19.09,-19.22 -1.88,-1.75 -4.72,1.07 -2.83,2.83 z"
   id="path88" />
			</g>
		</g>
		<g
   class="st1"
   id="g98">
			<g
   id="g96">
				<path
   d="m 1047.09,478.72 c 4.14,3.69 5.51,9.29 6.17,14.6 0.85,6.78 1.19,13.65 1.43,20.47 0.52,14.43 0.04,28.89 -1.42,43.25 -0.82,8.05 -1.97,16.07 -3.42,24.03 -0.46,2.52 3.4,3.6 3.86,1.06 2.67,-14.7 4.34,-29.58 4.94,-44.51 0.58,-14.59 0.38,-29.42 -1.34,-43.93 -0.77,-6.46 -2.32,-13.29 -7.38,-17.8 -1.93,-1.71 -4.76,1.11 -2.84,2.83 z"
   id="path94" />
			</g>
		</g>
		<g
   class="st1"
   id="g104">
			<g
   id="g102">
				<path
   d="m 1053.83,516.42 c 5.46,17.32 7.69,35.39 11.42,53.11 1.84,8.72 4.05,17.39 7.21,25.74 3.23,8.54 7.51,16.58 12.55,24.18 5.69,8.58 12.16,16.6 18.67,24.56 1.63,1.99 4.44,-0.85 2.83,-2.83 -11.28,-13.81 -22.58,-28.03 -29.3,-44.72 -6.65,-16.52 -9.33,-34.25 -12.58,-51.66 -1.85,-9.92 -3.9,-19.82 -6.94,-29.45 -0.78,-2.44 -4.64,-1.39 -3.86,1.07 z"
   id="path100" />
			</g>
		</g>
		<g
   class="st1"
   id="g110">
			<g
   id="g108">
				<path
   d="m 1082.22,598.53 c 10.48,10 19.32,21.6 26.24,34.32 6.92,12.71 11.88,26.45 14.68,40.65 1.58,8.03 2.43,16.19 2.55,24.38 0.04,2.57 4.04,2.58 4,0 -0.23,-14.88 -2.82,-29.71 -7.6,-43.8 -4.78,-14.08 -11.67,-27.47 -20.46,-39.46 -4.97,-6.78 -10.5,-13.12 -16.58,-18.92 -1.86,-1.78 -4.7,1.05 -2.83,2.83 z"
   id="path106" />
			</g>
		</g>
		<g
   class="st1"
   id="g116">
			<g
   id="g114">
				<path
   d="m 1130.92,675.46 c 8.37,7.41 16.74,14.81 25.11,22.22 7.77,6.87 15.81,13.54 23.16,20.86 6.71,6.68 12.45,14.22 15.27,23.38 2.83,9.18 2.94,18.88 2.51,28.39 -0.5,11.07 -1.78,22.13 -1.2,33.22 0.14,2.56 4.14,2.58 4,0 -1.04,-19.75 4.13,-39.9 -0.57,-59.43 -2.3,-9.57 -7.35,-17.84 -13.97,-25.04 -6.94,-7.56 -14.99,-14.12 -22.66,-20.91 -9.61,-8.5 -19.22,-17.01 -28.83,-25.51 -1.92,-1.71 -4.76,1.11 -2.82,2.82 z"
   id="path112" />
			</g>
		</g>
		<g
   class="st1"
   id="g122">
			<g
   id="g120">
				<path
   d="m 1176.36,760.7 c 9.87,4.19 19.81,8.42 28.87,14.21 9.13,5.83 16.43,13.53 23.41,21.73 7.09,8.32 14.28,16.52 21.94,24.33 7.53,7.68 15.39,15.05 23.54,22.07 9.3,8.01 18.99,15.57 29.01,22.66 2.11,1.49 4.11,-1.98 2.02,-3.45 -17.67,-12.51 -34.26,-26.53 -49.54,-41.87 -7.71,-7.74 -15.03,-15.83 -22.1,-24.16 -6.99,-8.24 -14.08,-16.32 -22.98,-22.56 -9.89,-6.94 -21.09,-11.7 -32.16,-16.4 -0.99,-0.42 -2.14,-0.3 -2.74,0.72 -0.48,0.83 -0.27,2.3 0.73,2.72 z"
   id="path118" />
			</g>
		</g>
		<g
   class="st1"
   id="g128">
			<g
   id="g126">
				<path
   d="m 814.36,195.79 c -13.71,11.67 -25.77,27.2 -26,46 -0.06,5.17 0.84,10.36 2.86,15.12 0.42,0.99 1.32,1.71 2.46,1.4 0.94,-0.26 1.82,-1.46 1.4,-2.46 -3.41,-8.09 -3.4,-17.07 -0.96,-25.43 2.38,-8.14 7.05,-15.42 12.65,-21.72 3.22,-3.62 6.74,-6.94 10.43,-10.08 1.95,-1.67 -0.89,-4.49 -2.84,-2.83 z"
   id="path124" />
			</g>
		</g>
		<g
   class="st1"
   id="g134">
			<g
   id="g132">
				<path
   d="m 789.21,252.46 c 7.52,20.03 15.05,40.07 22.57,60.1 2.14,5.69 4.27,11.38 6.41,17.07 0.38,1.01 1.35,1.7 2.46,1.4 0.97,-0.27 1.78,-1.44 1.4,-2.46 -7.52,-20.03 -15.05,-40.07 -22.57,-60.1 -2.14,-5.69 -4.27,-11.38 -6.41,-17.07 -0.38,-1.01 -1.35,-1.7 -2.46,-1.4 -0.98,0.27 -1.79,1.44 -1.4,2.46 z"
   id="path130" />
			</g>
		</g>
		<g
   class="st1"
   id="g140">
			<g
   id="g138">
				<path
   d="m 815.37,314.82 c 2.48,7.24 6.75,13.58 10.64,20.1 3.93,6.58 7.59,13.33 10.97,20.2 6.69,13.61 12.27,27.74 16.7,42.24 2.52,8.27 4.67,16.65 6.43,25.11 0.53,2.52 4.38,1.45 3.86,-1.06 -3.12,-14.94 -7.43,-29.62 -12.88,-43.87 -5.44,-14.2 -11.97,-27.98 -19.57,-41.14 -4.27,-7.4 -9.5,-14.51 -12.29,-22.65 -0.83,-2.41 -4.69,-1.37 -3.86,1.07 z"
   id="path136" />
			</g>
		</g>
		<g
   class="st1"
   id="g146">
			<g
   id="g144">
				<path
   d="m 862.73,419.43 c -0.29,22.64 -4.76,44.97 -11.7,66.47 -7.04,21.8 -16.5,42.73 -26.76,63.19 -5.82,11.61 -11.91,23.09 -18.02,34.55 -1.21,2.27 2.24,4.29 3.45,2.02 10.96,-20.54 21.85,-41.15 31.23,-62.48 9.25,-21.02 17.1,-42.77 21.62,-65.33 2.53,-12.65 4.01,-25.52 4.17,-38.42 0.05,-2.58 -3.95,-2.58 -3.99,0 z"
   id="path142" />
			</g>
		</g>
		<g
   class="st1"
   id="g152">
			<g
   id="g150">
				<path
   d="m 806.57,615.98 c 7.33,22.08 14.71,44.17 23.36,65.78 8.57,21.4 18.37,42.38 30.57,61.97 6.85,11 14.45,21.52 22.87,31.38 1.67,1.96 4.49,-0.88 2.83,-2.83 -14.76,-17.3 -26.82,-36.72 -36.98,-57.02 -10.26,-20.5 -18.62,-41.88 -26.26,-63.47 -4.33,-12.24 -8.44,-24.56 -12.52,-36.88 -0.82,-2.42 -4.68,-1.38 -3.87,1.07 z"
   id="path148" />
			</g>
		</g>
		<g
   class="st1"
   id="g158">
			<g
   id="g156">
				<path
   d="m 811.11,559.24 c -5.95,7.1 -5.95,16.56 -4.69,25.28 1.42,9.87 3.82,19.69 6.36,29.33 5.25,19.94 12.23,39.42 20.78,58.18 4.82,10.57 10.16,20.91 15.97,30.96 1.29,2.23 4.75,0.22 3.45,-2.02 -10.04,-17.36 -18.63,-35.53 -25.62,-54.32 -6.94,-18.67 -12.34,-37.91 -16.1,-57.47 -1.67,-8.68 -3.53,-19.7 2.67,-27.11 1.65,-1.96 -1.17,-4.8 -2.82,-2.83 z"
   id="path154" />
			</g>
		</g>
		<g
   class="st1"
   id="g164">
			<g
   id="g162">
				<path
   d="m 877.76,753.57 c 2.94,15.08 11.88,28.95 11.66,44.64 -0.12,8.4 -2.63,16.56 -5.16,24.49 -2.55,7.99 -5.42,15.88 -8.59,23.65 -3.55,8.7 -7.5,17.22 -11.8,25.57 -1.18,2.29 2.27,4.31 3.45,2.02 7.83,-15.21 14.48,-31.03 19.84,-47.27 2.67,-8.11 5.31,-16.37 6.07,-24.91 0.71,-8.11 -0.97,-16.04 -3.5,-23.71 -2.8,-8.49 -6.41,-16.73 -8.13,-25.54 -0.48,-2.53 -4.33,-1.46 -3.84,1.06 z"
   id="path160" />
			</g>
		</g>
		<g
   class="st1"
   id="g170">
			<g
   id="g168">
				<path
   d="m 850.72,221.9 c -2.66,13.32 3.45,25.87 8.3,37.89 4.87,12.05 8.96,24.41 12.26,36.98 6.56,24.98 9.99,50.74 10.19,76.56 0.11,14.56 -0.79,29.14 -2.75,43.57 -0.15,1.07 0.26,2.15 1.4,2.46 0.93,0.26 2.31,-0.32 2.46,-1.4 3.52,-25.8 3.84,-51.97 0.87,-77.84 -2.95,-25.71 -8.99,-51.04 -18.16,-75.24 -2.62,-6.91 -5.73,-13.64 -8.15,-20.63 -2.36,-6.82 -4,-14.1 -2.57,-21.3 0.51,-2.5 -3.35,-3.57 -3.85,-1.05 z"
   id="path166" />
			</g>
		</g>
		<g
   class="st1"
   id="g176">
			<g
   id="g174">
				<path
   d="m 884.21,411.23 c 13.47,-5.73 21.16,-19.17 25.91,-32.32 1.52,-4.21 2.82,-8.5 4.11,-12.78 0.75,-2.47 -3.11,-3.52 -3.86,-1.06 -4.94,16.36 -11.05,35.43 -28.19,42.71 -0.99,0.42 -1.21,1.89 -0.72,2.74 0.62,1.03 1.76,1.14 2.75,0.71 z"
   id="path172" />
			</g>
		</g>
		<g
   class="st1"
   id="g182">
			<g
   id="g180">
				<path
   d="m 911.71,371.27 c 0.8,-1.12 1.61,-2.24 2.41,-3.36 -1.15,0 -2.3,0 -3.45,0 3.13,6.56 5,13.63 6.51,20.71 1.6,7.52 2.94,15.1 4.32,22.67 2.85,15.6 5.52,31.23 8.02,46.89 1.41,8.81 2.76,17.63 4.05,26.45 0.16,1.07 1.51,1.66 2.46,1.4 1.15,-0.32 1.55,-1.39 1.4,-2.46 -2.33,-15.85 -4.83,-31.68 -7.52,-47.48 -2.63,-15.46 -5.3,-30.93 -8.42,-46.3 -1.66,-8.2 -3.77,-16.32 -7.38,-23.9 -0.7,-1.48 -2.66,-1.1 -3.45,0 -0.8,1.12 -1.61,2.24 -2.41,3.36 -0.63,0.88 -0.15,2.23 0.72,2.74 1.01,0.59 2.11,0.16 2.74,-0.72 z"
   id="path178" />
			</g>
		</g>
		<g
   class="st1"
   id="g188">
			<g
   id="g186">
				<path
   d="m 927.6,467.24 c 5.39,28.32 10.78,56.64 16.17,84.96 1.53,8.02 3.05,16.04 4.58,24.06 0.48,2.53 4.34,1.46 3.86,-1.06 -5.39,-28.32 -10.78,-56.64 -16.17,-84.96 -1.53,-8.02 -3.05,-16.04 -4.58,-24.06 -0.48,-2.53 -4.34,-1.46 -3.86,1.06 z"
   id="path184" />
			</g>
		</g>
		<g
   class="st1"
   id="g194">
			<g
   id="g192">
				<path
   d="m 952.05,552.6 c 2.9,3.52 4.3,8.07 7.68,11.23 3.33,3.11 8.07,4.6 12.21,2.1 1.96,-1.18 3.48,-2.92 4.94,-4.64 1.53,-1.8 3.01,-3.64 4.44,-5.53 2.87,-3.78 5.51,-7.75 7.88,-11.86 2.72,-4.71 5.08,-9.6 7.14,-14.64 0.41,-1 -0.44,-2.2 -1.4,-2.46 -1.15,-0.32 -2.05,0.39 -2.46,1.4 -3.26,7.95 -7.46,15.52 -12.42,22.53 -2.39,3.38 -4.94,6.74 -7.81,9.74 -1.25,1.31 -2.75,2.66 -4.65,2.76 -1.76,0.09 -3.46,-0.84 -4.75,-1.97 -3.52,-3.1 -5.02,-7.91 -7.98,-11.5 -1.63,-1.98 -4.44,0.86 -2.82,2.84 z"
   id="path190" />
			</g>
		</g>
		<g
   class="st1"
   id="g200">
			<g
   id="g198">
				<path
   d="m 990.49,568.73 c 0.47,17.4 0.95,34.8 1.42,52.19 0.13,4.91 0.27,9.82 0.4,14.73 0.07,2.57 4.07,2.58 4,0 -0.47,-17.4 -0.95,-34.8 -1.42,-52.19 -0.13,-4.91 -0.27,-9.82 -0.4,-14.73 -0.07,-2.57 -4.07,-2.58 -4,0 z"
   id="path196" />
			</g>
		</g>
		<g
   class="st1"
   id="g206">
			<g
   id="g204">
				<path
   d="m 989.08,586.35 c 1.06,26.56 -0.38,53.24 -4.42,79.52 -1.13,7.38 -2.47,14.72 -3.99,22.02 -0.52,2.51 3.33,3.59 3.86,1.06 5.47,-26.22 8.45,-52.96 8.85,-79.74 0.11,-7.62 0.01,-15.25 -0.29,-22.87 -0.11,-2.56 -4.11,-2.57 -4.01,0.01 z"
   id="path202" />
			</g>
		</g>
		<g
   class="st1"
   id="g212">
			<g
   id="g210">
				<path
   d="m 987.1,674.42 c 8.38,2.84 14.29,9.94 18.33,17.52 4.69,8.81 6.85,18.65 9.99,28.06 1.66,4.96 3.59,9.88 6.16,14.44 2.22,3.93 4.89,7.59 7.87,10.98 5.93,6.75 13.14,12.31 20.71,17.11 8.69,5.52 17.95,10.08 27.21,14.54 2.31,1.11 4.34,-2.34 2.02,-3.45 -16.22,-7.81 -33.1,-16.03 -45.59,-29.35 -6.63,-7.07 -11.12,-15.34 -14.24,-24.47 -3.29,-9.65 -5.51,-19.71 -10.15,-28.85 -4.55,-8.96 -11.49,-17.07 -21.25,-20.37 -2.44,-0.85 -3.49,3.02 -1.06,3.84 z"
   id="path208" />
			</g>
		</g>
		<g
   class="st1"
   id="g218">
			<g
   id="g216">
				<path
   d="m 1085.76,768.79 c 2.69,17.98 6.73,35.76 12.1,53.13 1.52,4.93 3.16,9.83 4.89,14.69 0.86,2.41 4.72,1.37 3.86,-1.06 -6.11,-17.13 -10.93,-34.7 -14.38,-52.56 -0.98,-5.07 -1.85,-10.15 -2.61,-15.26 -0.16,-1.07 -1.51,-1.66 -2.46,-1.4 -1.15,0.31 -1.56,1.38 -1.4,2.46 z"
   id="path214" />
			</g>
		</g>
		<g
   class="st1"
   id="g224">
			<g
   id="g222">
				<path
   d="m 1105.92,821.93 c -5.31,17.89 -13.13,34.95 -23.19,50.66 -1.39,2.17 2.07,4.18 3.45,2.02 10.24,-15.99 18.19,-33.42 23.6,-51.62 0.73,-2.47 -3.13,-3.52 -3.86,-1.06 z"
   id="path220" />
			</g>
		</g>
		<g
   class="st1"
   id="g230">
			<g
   id="g228">
				<path
   d="m 1104.35,873.75 c 16.47,-2.39 32.94,-4.79 49.41,-7.18 4.67,-0.68 9.34,-1.36 14.01,-2.04 1.07,-0.16 1.66,-1.51 1.4,-2.46 -0.32,-1.15 -1.39,-1.55 -2.46,-1.4 -16.47,2.39 -32.94,4.79 -49.41,7.18 -4.67,0.68 -9.34,1.36 -14.01,2.04 -1.07,0.16 -1.66,1.51 -1.4,2.46 0.31,1.15 1.38,1.56 2.46,1.4 z"
   id="path226" />
			</g>
		</g>
		<g
   class="st1"
   id="g236">
			<g
   id="g234">
				<path
   d="m 1186.12,872.16 c 10.6,5.55 21.83,9.87 33.42,12.83 2.5,0.64 3.56,-3.22 1.06,-3.86 -11.27,-2.88 -22.16,-7.04 -32.46,-12.43 -2.28,-1.18 -4.3,2.27 -2.02,3.46 z"
   id="path232" />
			</g>
		</g>
		<g
   class="st1"
   id="g242">
			<g
   id="g240">
				<path
   d="m 1251.27,877.94 c 14.81,5.29 30.85,7.19 46.48,5.49 4.48,-0.49 8.92,-1.24 13.31,-2.29 2.5,-0.6 1.44,-4.45 -1.06,-3.86 -14.79,3.52 -30.35,3.67 -45.2,0.39 -4.23,-0.93 -8.38,-2.14 -12.46,-3.59 -2.44,-0.87 -3.48,3 -1.07,3.86 z"
   id="path238" />
			</g>
		</g>
		<g
   class="st1"
   id="g248">
			<g
   id="g246">
				<path
   d="m 701.85,334.51 c 6.36,16.76 4.85,35.05 0.5,52.1 -4.5,17.65 -12.11,34.27 -17.94,51.48 -3.29,9.73 -5.96,19.65 -7.28,29.85 -0.14,1.07 1.02,2 2,2 1.2,0 1.86,-0.92 2,-2 2.37,-18.26 9.46,-35.47 15.92,-52.57 6.39,-16.9 12.24,-34.27 13.02,-52.47 0.43,-9.98 -0.81,-20.09 -4.37,-29.46 -0.38,-1.01 -1.35,-1.7 -2.46,-1.4 -0.96,0.27 -1.77,1.45 -1.39,2.47 z"
   id="path244" />
			</g>
		</g>
		<g
   class="st1"
   id="g254">
			<g
   id="g252">
				<path
   d="m 697.07,318.6 c 4.48,8.13 4.88,17.59 4.25,26.65 -0.72,10.29 -2.32,20.54 -3.59,30.77 -1.28,10.32 -2.35,20.69 -4.01,30.95 -1.52,9.4 -3.7,18.87 -8.03,27.41 -4.6,9.06 -12.16,16.77 -14.29,26.97 -0.2,0.96 0.16,1.7 0.92,2.26 4.93,3.66 10.63,-1.6 13.45,-5.43 4.24,-5.78 8.33,-11.68 12.49,-17.51 7.51,-10.54 15.78,-21.12 19.81,-33.6 2.16,-6.69 2.74,-13.81 0.92,-20.64 -0.66,-2.48 -4.52,-1.43 -3.86,1.06 3.03,11.38 -1.7,22.72 -7.49,32.39 -3.05,5.09 -6.51,9.91 -9.95,14.73 -3.84,5.39 -7.68,10.77 -11.52,16.16 -1.85,2.59 -3.54,5.45 -5.86,7.66 -1.57,1.5 -3.89,3.27 -5.96,1.73 0.31,0.75 0.61,1.51 0.92,2.26 1.9,-9.11 8.47,-16.14 12.86,-24.09 4.77,-8.63 7.36,-18.25 9.05,-27.91 1.79,-10.24 2.84,-20.63 4.12,-30.94 1.31,-10.54 2.87,-21.09 3.81,-31.67 0.95,-10.6 0.67,-21.69 -4.59,-31.23 -1.24,-2.26 -4.7,-0.24 -3.45,2.02 z"
   id="path250" />
			</g>
		</g>
		<g
   class="st1"
   id="g260">
			<g
   id="g258">
				<path
   d="m 722.3,350.36 c 0.13,9.37 0.25,18.75 0.38,28.12 0.03,2.32 0.06,4.65 0.09,6.97 0.03,1.94 -0.16,4.09 0.7,5.89 0.78,1.63 2.35,2.56 4.15,2.28 1.64,-0.26 3.21,-1.61 2.99,-3.41 -0.13,-1.07 -0.83,-2 -2,-2 -0.98,0 -2.13,0.92 -2,2 0.1,0.81 0.54,-0.82 0.49,-0.47 0,-0.01 -0.23,-0.72 -0.26,-0.96 -0.21,-1.65 -0.08,-3.4 -0.1,-5.07 -0.05,-3.73 -0.1,-7.47 -0.15,-11.2 -0.1,-7.38 -0.2,-14.77 -0.3,-22.15 -0.03,-2.57 -4.03,-2.58 -3.99,0 z"
   id="path256" />
			</g>
		</g>
		<g
   class="st1"
   id="g266">
			<g
   id="g264">
				<path
   d="m 725.26,346.15 c 7.92,23.58 11.51,48.52 10.56,73.38 -0.27,6.97 -0.88,13.92 -1.87,20.82 -0.15,1.07 0.26,2.15 1.4,2.46 0.94,0.26 2.31,-0.32 2.46,-1.4 3.6,-25.16 2.64,-50.87 -2.92,-75.68 -1.56,-6.98 -3.49,-13.87 -5.77,-20.65 -0.82,-2.42 -4.69,-1.38 -3.86,1.07 z"
   id="path262" />
			</g>
		</g>
		<g
   class="st1"
   id="g272">
			<g
   id="g270">
				<path
   d="m 736.69,421.39 c 0.52,1.67 1.03,3.33 1.55,5 0.31,0.99 1.41,1.76 2.46,1.4 9.62,-3.28 11.91,-14.51 14.07,-23.19 3.1,-12.42 6.19,-24.84 9.29,-37.26 1.77,-7.1 3.54,-14.19 5.31,-21.29 0.62,-2.5 -3.23,-3.56 -3.86,-1.06 -3,12.02 -5.99,24.03 -8.99,36.05 -1.51,6.05 -3.02,12.1 -4.52,18.15 -1.24,4.98 -2.26,10.1 -4.06,14.92 -1.52,4.06 -3.97,8.35 -8.3,9.83 0.82,0.47 1.64,0.93 2.46,1.4 -0.52,-1.67 -1.03,-3.33 -1.55,-5 -0.77,-2.47 -4.63,-1.42 -3.86,1.05 z"
   id="path268" />
			</g>
		</g>
		<g
   class="st1"
   id="g278">
			<g
   id="g276">
				<path
   d="m 779.16,333.97 c -1.61,23.18 -0.36,46.51 3.68,69.39 1.14,6.46 2.51,12.88 4.09,19.25 0.62,2.5 4.48,1.44 3.86,-1.06 -5.54,-22.28 -8.35,-45.19 -8.32,-68.15 0.01,-6.48 0.24,-12.96 0.69,-19.43 0.18,-2.57 -3.83,-2.56 -4,0 z"
   id="path274" />
			</g>
		</g>
		<g
   class="st1"
   id="g284">
			<g
   id="g282">
				<path
   d="m 776.8,349.31 c 1.43,15.97 2.86,31.95 4.28,47.92 1.38,15.42 2.97,30.89 2.62,46.39 -0.2,8.78 -1.06,17.53 -2.96,26.12 -0.56,2.51 3.3,3.58 3.86,1.06 3.42,-15.4 3.58,-31.25 2.65,-46.94 -0.94,-15.82 -2.61,-31.6 -4.02,-47.38 -0.81,-9.06 -1.62,-18.12 -2.43,-27.17 -0.1,-1.08 -0.85,-2 -2,-2 -1.01,0 -2.1,0.92 -2,2 z"
   id="path280" />
			</g>
		</g>
		<g
   class="st1"
   id="g290">
			<g
   id="g288">
				<path
   d="m 772.79,334.5 c -0.84,-2.84 -3.92,-4.56 -6.79,-3.76 -0.73,0.2 -1.58,0.61 -1.97,1.28 -0.45,0.77 -0.3,1.89 -0.28,2.74 0.04,1.9 0.24,3.79 0.54,5.66 1.16,7.21 4.19,13.98 7.24,20.55 3.09,6.66 6.09,13.29 8.33,20.3 2.31,7.23 4.01,14.67 5.01,22.19 1.12,8.46 1.37,17.03 0.8,25.55 -0.17,2.57 3.83,2.56 4,0 0.89,-13.25 -0.26,-26.64 -3.36,-39.56 -1.53,-6.37 -3.54,-12.63 -6.02,-18.69 -2.41,-5.9 -5.34,-11.57 -7.83,-17.44 -2.73,-6.44 -4.87,-13.22 -4.69,-20.29 -0.33,0.58 -0.66,1.15 -0.99,1.73 0.79,-0.47 1.91,-0.1 2.17,0.81 0.71,2.45 4.57,1.41 3.84,-1.07 z"
   id="path286" />
			</g>
		</g>
		<g
   class="st1"
   id="g296">
			<g
   id="g294">
				<path
   d="m 779.99,411.49 c 7.08,13.41 12.16,27.83 15.05,42.72 0.81,4.2 1.45,8.43 1.91,12.68 0.27,2.5 4.04,2.63 4,0 -0.26,-17.98 -0.28,-36.14 2.83,-53.91 2.96,-16.95 9,-33.1 19.1,-47.12 5.41,-7.51 11.87,-14.24 19.06,-20.05 0.84,-0.68 0.71,-2.12 0,-2.83 -0.83,-0.83 -1.99,-0.68 -2.83,0 -13.07,10.55 -23.64,24.25 -30.46,39.61 -7.44,16.76 -10.36,35.01 -11.34,53.2 -0.56,10.36 -0.51,20.73 -0.36,31.1 1.33,0 2.67,0 4,0 -1.67,-15.63 -5.62,-30.89 -11.76,-45.36 -1.74,-4.1 -3.66,-8.12 -5.74,-12.06 -1.21,-2.28 -4.66,-0.26 -3.46,2.02 z"
   id="path292" />
			</g>
		</g>
		<g
   class="st1"
   id="g302">
			<g
   id="g300">
				<path
   d="m 822.32,357.45 c 12.34,18.53 15.4,41.32 26.3,60.56 3.01,5.31 6.66,10.29 11.03,14.56 1.84,1.8 4.67,-1.03 2.83,-2.83 -15.74,-15.39 -19.84,-38.19 -28.07,-57.76 -2.42,-5.75 -5.17,-11.35 -8.63,-16.54 -1.43,-2.14 -4.89,-0.14 -3.46,2.01 z"
   id="path298" />
			</g>
		</g>
		<g
   class="st1"
   id="g308">
			<g
   id="g306">
				<path
   d="m 835.54,364.97 c 6.76,24.9 18.35,48.49 33.96,69.05 4.43,5.83 9.15,11.42 14.17,16.74 1.77,1.87 4.6,-0.96 2.83,-2.83 -17.37,-18.37 -31.19,-40.12 -40.39,-63.67 -2.6,-6.65 -4.84,-13.45 -6.71,-20.34 -0.68,-2.5 -4.54,-1.45 -3.86,1.05 z"
   id="path304" />
			</g>
		</g>
		<g
   class="st1"
   id="g314">
			<g
   id="g312">
				<path
   d="m 867.88,431.6 c 9.72,-11.65 13.84,-26.46 16.05,-41.21 2.27,-15.23 2.65,-30.76 6.47,-45.73 2.11,-8.28 5.31,-16.23 10.31,-23.2 0.63,-0.88 0.15,-2.23 -0.72,-2.74 -1.01,-0.59 -2.11,-0.16 -2.74,0.72 -9.02,12.61 -12.2,28.08 -14.1,43.19 -1.87,14.85 -2.52,29.95 -6.88,44.37 -2.38,7.87 -5.92,15.44 -11.21,21.78 -1.64,1.95 1.17,4.79 2.82,2.82 z"
   id="path310" />
			</g>
		</g>
		<g
   class="st1"
   id="g320">
			<g
   id="g318">
				<path
   d="m 888.73,345.13 c -0.18,0.5 -0.42,0.15 -0.3,0.27 0.04,0.04 0.7,0.13 0.88,0.21 0.71,0.31 1.32,0.84 1.8,1.43 1.46,1.79 2.63,3.92 3.72,5.95 2.2,4.11 3.85,8.48 5.26,12.92 2.89,9.11 4.75,18.52 7.92,27.54 1.79,5.1 4,10.07 6.94,14.62 1.39,2.15 4.86,0.15 3.45,-2.02 -11.49,-17.78 -10.73,-40.53 -22.06,-58.4 -1.38,-2.17 -2.81,-4.47 -5.23,-5.58 -2.46,-1.13 -5.21,-0.79 -6.24,2 -0.89,2.42 2.97,3.46 3.86,1.06 z"
   id="path316" />
			</g>
		</g>
		<g
   class="st1"
   id="g326">
			<g
   id="g324">
				<path
   d="m 898.58,371.52 c 4.09,7.19 11.16,11.78 17.91,16.2 8.29,5.42 16.58,10.84 24.87,16.26 2.16,1.41 4.17,-2.05 2.02,-3.45 -8.01,-5.24 -16.03,-10.48 -24.04,-15.72 -6.44,-4.21 -13.4,-8.43 -17.31,-15.3 -1.27,-2.25 -4.73,-0.24 -3.45,2.01 z"
   id="path322" />
			</g>
		</g>
		<g
   class="st1"
   id="g332">
			<g
   id="g330">
				<path
   d="m 928.66,403.05 c 6.49,-5.16 8.76,-13.49 9.62,-21.39 0.88,-8.18 0.07,-16.53 2.01,-24.59 1.04,-4.34 2.89,-8.4 6.15,-11.52 1.86,-1.79 -0.97,-4.61 -2.83,-2.83 -12.74,12.23 -6.28,31.69 -10.89,46.88 -1.27,4.17 -3.44,7.9 -6.88,10.63 -0.85,0.67 -0.7,2.13 0,2.83 0.83,0.82 1.97,0.66 2.82,-0.01 z"
   id="path328" />
			</g>
		</g>
		<g
   class="st1"
   id="g338">
			<g
   id="g336">
				<path
   d="m 942.32,352.32 c 1.6,-0.66 3.2,-1.31 4.81,-1.97 -0.84,-0.64 -1.69,-1.29 -2.53,-1.93 -1.77,15.21 -5.84,30.19 -12.01,44.21 -0.44,0.99 -0.29,2.15 0.72,2.74 0.85,0.5 2.3,0.28 2.74,-0.72 6.48,-14.71 10.71,-30.25 12.56,-46.22 0.14,-1.2 -1.41,-2.39 -2.53,-1.93 -1.6,0.66 -3.2,1.31 -4.81,1.97 -1,0.41 -1.71,1.33 -1.4,2.46 0.25,0.94 1.44,1.8 2.45,1.39 z"
   id="path334" />
			</g>
		</g>
	</g>
	<polygon
   class="st2"
   points="537.95,654.71 609.73,576.01 640.09,502.26 691.16,320.53 746.62,241.26 797.37,195.2 820.15,192.35 839.79,214.82 878.65,249.79 916.81,298.94 960.15,378.16 1015.52,436.84 1052.88,485.35 1055.94,552.09 1105.86,628.72 1170.86,708.33 1193.24,766.34 1298.28,860.02 1310.78,879.71 1252.04,876.51 1220.3,883.57 1187.35,870.93 1104.01,872.32 1084.64,874.1 865.73,873.41 442.92,862.73 468.01,753.65 "
   id="polygon342" />
	<g
   id="g348">
		<path
   class="st3"
   d="m 755.52,429.43 c 0.1,0.15 0.08,-0.17 -0.04,-0.9 -0.04,0.49 -0.03,0.79 0.04,0.9 z"
   id="path344" />
		<path
   class="st3"
   d="m 892.5,291.4 26.59,19.86 5.48,3.91 0.67,-0.84 -8.42,-15.4 -38.17,-49.15 -38.86,-34.96 -19.64,-22.47 -22.78,2.84 -50.74,46.07 -55.46,79.27 -23.29,82.88 v 0 l 23.48,-37.37 10.16,-43.04 14.09,40.21 17.22,43.53 -3.91,-90.78 c 0,0 24.74,101.71 26.57,112.58 0.86,-9.75 24.3,-91.45 24.3,-91.45 l 34.43,92.38 5.82,-160.47 43.48,73.57 v -52.43 l 33.65,36.78 z"
   id="path346" />
	</g>
	<polyline
   class="st3"
   points="728.13,429.47 703.09,488.91 715.61,549.17  "
   id="polyline350" />
	<polyline
   class="st3"
   points="651.12,463 643.61,533.52 613.83,566.05  "
   id="polyline352" />
	<polyline
   class="st3"
   points="689.78,405.17 672.57,484.22 703.09,417.7  "
   id="polyline354" />
	<polyline
   class="st3"
   points="761.78,500.65 755.58,561.7 791.17,458.39 779,376.22  "
   id="polyline356" />
	<polyline
   class="st3"
   points="800.91,525.7 773.38,614.13 810.3,553.87  "
   id="polyline358" />
	<polyline
   class="st3"
   points="820.04,451.35 803.26,514.53 849.43,419.26  "
   id="polyline360" />
	<polygon
   class="st3"
   points="739.09,605.52 735.17,549.17 699.96,634.48 "
   id="polygon362" />
	<polyline
   class="st3"
   points="574.96,614.13 537.95,654.71 580.22,634.48  "
   id="polyline364" />
	<polyline
   class="st3"
   points="667.87,566.05 632.48,654.71 680.39,569.91  "
   id="polyline366" />
	<polyline
   class="st3"
   points="672.57,505.35 651.12,556.22 696.04,505.35  "
   id="polyline368" />
	<polyline
   class="st3"
   points="845.52,357.43 881.52,410.65 863.52,357.43  "
   id="polyline370" />
	<polyline
   class="st3"
   points="922.22,384.04 922.22,434.13 891.7,372.3  "
   id="polyline372" />
	<polyline
   class="st3"
   points="887.78,489.32 887.78,566.05 910.48,479.52  "
   id="polyline374" />
	<polyline
   class="st3"
   points="930.83,455.26 949.61,428.53 988.74,530.78  "
   id="polyline376" />
	<polyline
   class="st3"
   points="918.3,530.78 930.83,489.32 980.13,591.83  "
   id="polyline378" />
	<polyline
   class="st3"
   points="849.43,544.48 830.65,614.13 872.13,522.79  "
   id="polyline380" />
	<polyline
   class="st3"
   points="863.52,456.04 881.52,429.47 863.52,517.09  "
   id="polyline382" />
	<polyline
   class="st3"
   points="906.96,330.83 922.22,318.3 955.87,399.7  "
   id="polyline384" />
	<polyline
   class="st3"
   points="980.13,451.35 1002.83,437.26 1041.17,525.7  "
   id="polyline386" />
	<path
   class="st4"
   d="m 1310.78,879.71 -12.5,-19.69 -105.04,-93.68 -22.37,-58.02 -65,-79.61 -49.92,-76.63 -3.05,-66.74 -37.36,-48.51 -55.37,-58.68 -43.34,-79.22 -38.17,-49.15 -38.86,-34.96 -18.95,-21.68 c -0.41,0.76 -0.68,1.31 -0.81,1.58 -9.62,13.9 -19.24,27.8 -28.87,41.7 l 26.42,88.08 42.96,95.14 1.52,32.13 -50.93,126.17 28.55,126.25 45.11,71.72 6.64,28.46 -25.2,69.04 218.37,0.68 19.37,-1.78 83.34,-1.39 32.95,12.64 31.74,-7.06 z"
   id="path388" />
	<path
   class="st5"
   d="m 1252.04,876.51 58.74,3.2 -12.5,-19.69 -105.04,-93.68 -22.37,-58.02 -65,-79.61 -49.92,-76.63 -3.05,-66.74 -37.36,-48.51 -55.37,-58.68 -43.34,-79.22 -38.17,-49.15 -38.86,-34.96 -17.95,-20.53 -1.8,0.43 c 0,0 81.05,110.28 83.4,109.49 2.35,-0.78 62.61,122.87 62.61,122.87 l 59.48,59.48 c -1.64,18.01 -3.94,36.83 -7.04,56.35 -7.4,46.52 -18.02,88.41 -29.74,125.22 5.13,-16.13 12.93,-35.63 25.04,-56.35 8.27,-14.14 16.93,-26.1 25.04,-36 14.9,19.44 21.29,36.95 24.26,50.09 4.71,20.82 5.27,50.14 5.47,50.13 0.01,0 0.01,-0.03 0.01,-0.04 0,-2.35 13.3,-39.91 13.3,-39.91 l 74.35,79.83 c 3.27,9.28 8.87,29.16 4.7,54 -3.79,22.53 -13.81,38.35 -19.57,46.17 14.61,-0.84 35.44,-0.44 59.48,5.48 22.52,5.55 40.2,14.05 52.43,21.13 -19.9,8.65 -36.6,11.07 -47.74,11.74 -29.22,1.75 -59.52,-6.21 -59.52,-6.26 0,0 0.01,0 0.04,0 2.35,0 41.31,22.8 41.31,22.8 v 0 l 32.95,12.64 z"
   id="path390" />
	<polygon
   class="st6"
   points="598.22,670.48 575.89,801.17 613.83,692.39 644.39,580.48 613.83,621.17 537.95,709.61 "
   id="polygon392" />
	<polygon
   class="st6"
   points="620.91,822.3 527.03,864.85 632.48,867.52 656.43,820.74 651.12,783.17 680.39,719 687.83,654.71 613.83,783.96 "
   id="polygon394" />
	<polygon
   class="st6"
   points="696.04,816.04 663.96,867.52 719.52,869.72 728.13,809 719.52,740.13 696.04,674.39 703.09,733.87 "
   id="polygon396" />
	<polygon
   class="st6"
   points="777.45,871.18 810.3,872.01 791.17,792.57 820.04,690.83 763.35,764.39 "
   id="polygon398" />
	<path
   class="st7"
   d="m 506.7,698.92 -3.96,20.08 24.29,-34.43 c -4.19,20.45 -8.38,40.91 -12.57,61.36 -4.1,1.33 -16.25,5.86 -25.03,18.47 -7.14,10.26 -8.35,20.53 -8.61,25.04 -7.83,16.17 -15.65,32.35 -23.48,48.52 l -14.42,24.77 c 8.36,-36.36 16.73,-72.72 25.09,-109.08"
   id="path400" />
	<polygon
   class="st7"
   points="559.09,796.48 519.17,805.09 491,829.35 442.92,862.73 513.7,787.09 "
   id="polygon402" />
	<polyline
   class="st5"
   points="872.13,729.96 910.48,699.43 1070.13,801.17 996.81,768.53 955.87,750.3 876.85,729.96  "
   id="polyline404" />
	<polygon
   class="st5"
   points="1155.43,872.01 1014.57,873.88 1055.26,847.35 1010.65,774.69 1077.96,824.91 "
   id="polygon406" />
	<polygon
   class="st5"
   points="881.52,837.96 931.41,873.88 1014.57,873.88 922.22,848.91 "
   id="polygon408" />
	<polygon
   class="st5"
   points="1025.52,730.74 980.13,699.43 960,665.78 966.04,707.26 "
   id="polygon410" />
	<polygon
   class="st5"
   points="1103.78,801.17 1145.26,744.04 1128.83,705.7 1076.39,705.7 1118.65,726.83 "
   id="polygon412" />
</g>
<g
   id="Слой_2"
   transform="translate(-442.92,-192.35)">
</g>
</svg>
